<?xml version="1.0" encoding="utf-8"?>
<!-- Generator: Adobe Illustrator 25.0.1, SVG Export Plug-In . SVG Version: 6.00 Build 0)  -->
<svg version="1.1" id="Layer_1" xmlns="http://www.w3.org/2000/svg" xmlns:xlink="http://www.w3.org/1999/xlink" x="0px" y="0px"
	 viewBox="0 0 708.99 666.42" style="enable-background:new 0 0 708.99 666.42;" xml:space="preserve">
<style type="text/css">
	.st0{fill:#005E85;}
	.st1{fill:#B8CDEC;}
	.st2{fill:#294B79;}
	.st3{fill:#91B6D8;}
	.st4{fill:#797CA2;}
	.st5{fill:none;}
	.st6{font-family:'MyriadPro-Regular';}
	.st7{font-size:110px;}
	.st8{letter-spacing:8;}
	.st9{font-family:'NiagaraEngraved-Reg';}
	.st10{fill:#8A4D14;}
	.st11{fill:#E8D5CA;}
	.st12{fill:#DA675F;}
	.st13{fill:#E4B5AF;}
	.st14{fill:#BC7764;}
	.st15{fill:#71493C;}
	.st16{fill:#6F2B30;}
	.st17{fill:#B2364F;}
	.st18{fill:#41BCD2;stroke:#41BCD2;stroke-width:9;stroke-miterlimit:10;}
	.st19{font-size:113px;}
	.st20{letter-spacing:3;}
</style>
<g>
	<path class="st0" d="M658.05,527.61H62.79c-4.73,0-8.56-3.83-8.56-8.56V121.27c0-4.73,3.83-8.56,8.56-8.56h595.26
		c4.73,0,8.56,3.83,8.56,8.56v397.78C666.61,523.77,662.77,527.61,658.05,527.61z"/>
	<polygon class="st0" points="408.39,527.61 359.95,527.61 311.51,527.61 285.31,618.11 359.95,618.11 434.59,618.11 	"/>
	<path class="st1" d="M645.77,494.57H75.06c-6.09,0-11.02-4.93-11.02-11.02V135.36c0-6.09,4.93-11.02,11.02-11.02h570.71
		c6.09,0,11.02,4.93,11.02,11.02v348.19C656.79,489.64,651.86,494.57,645.77,494.57z"/>
	<polygon class="st2" points="359.95,527.61 311.51,527.61 302.41,559.04 359.95,559.04 417.49,559.04 408.39,527.61 	"/>
	<path class="st2" d="M505.21,630.64H214.69c-3.25,0-5.88-2.63-5.88-5.88v-13.29c0-3.25,2.63-5.88,5.88-5.88h290.53
		c3.25,0,5.88,2.63,5.88,5.88v13.29C511.1,628.01,508.46,630.64,505.21,630.64z"/>
	<g>
		<g>
			<g>
				<path class="st3" d="M243.27,242.48H106.9c-6.09,0-11.02-4.93-11.02-11.02v-76.09c0-6.09,4.93-11.02,11.02-11.02h136.37
					c6.09,0,11.02,4.93,11.02,11.02v76.09C254.29,237.55,249.35,242.48,243.27,242.48z"/>
				<path class="st4" d="M165.86,217.37v-2.41c10.84-3.45,18.73-13.91,18.73-26.29c0-15.19-11.87-27.5-26.51-27.5
					c-14.64,0-26.51,12.31-26.51,27.5c0,11.92,7.31,22.06,17.53,25.88v3.24c-9.88,3.69-17.04,13.29-17.5,24.7h52.96
					C184.08,230.62,176.36,220.71,165.86,217.37z"/>
			</g>
			<g>
				<path class="st3" d="M243.27,353.51H106.9c-6.09,0-11.02-4.93-11.02-11.02V266.4c0-6.09,4.93-11.02,11.02-11.02h136.37
					c6.09,0,11.02,4.93,11.02,11.02v76.09C254.29,348.58,249.35,353.51,243.27,353.51z"/>
				<path class="st4" d="M165.86,328.4v-2.41c10.84-3.45,18.73-13.91,18.73-26.29c0-15.19-11.87-27.5-26.51-27.5
					c-14.64,0-26.51,12.31-26.51,27.5c0,11.92,7.31,22.06,17.53,25.88v3.24c-9.88,3.69-17.04,13.29-17.5,24.7h52.96
					C184.08,341.65,176.36,331.74,165.86,328.4z"/>
			</g>
			<g>
				<path class="st3" d="M243.27,468.86H106.9c-6.09,0-11.02-4.93-11.02-11.02v-76.09c0-6.09,4.93-11.02,11.02-11.02h136.37
					c6.09,0,11.02,4.93,11.02,11.02v76.09C254.29,463.93,249.35,468.86,243.27,468.86z"/>
				<path class="st4" d="M165.86,443.75v-2.41c10.84-3.45,18.73-13.91,18.73-26.29c0-15.19-11.87-27.5-26.51-27.5
					c-14.64,0-26.51,12.31-26.51,27.5c0,11.92,7.31,22.06,17.53,25.88v3.24c-9.88,3.69-17.04,13.29-17.5,24.7h52.96
					C184.08,457,176.36,447.09,165.86,443.75z"/>
			</g>
		</g>
		<g>
			<g>
				<path class="st3" d="M427.31,242.48H290.94c-6.09,0-11.02-4.93-11.02-11.02v-76.09c0-6.09,4.93-11.02,11.02-11.02h136.37
					c6.09,0,11.02,4.93,11.02,11.02v76.09C438.33,237.55,433.39,242.48,427.31,242.48z"/>
				<path class="st4" d="M349.9,217.37v-2.41c10.84-3.45,18.73-13.91,18.73-26.29c0-15.19-11.87-27.5-26.51-27.5
					c-14.64,0-26.51,12.31-26.51,27.5c0,11.92,7.31,22.06,17.53,25.88v3.24c-9.88,3.69-17.04,13.29-17.5,24.7h52.96
					C368.12,230.62,360.4,220.71,349.9,217.37z"/>
			</g>
			<g>
				<path class="st3" d="M427.31,353.51H290.94c-6.09,0-11.02-4.93-11.02-11.02V266.4c0-6.09,4.93-11.02,11.02-11.02h136.37
					c6.09,0,11.02,4.93,11.02,11.02v76.09C438.33,348.58,433.39,353.51,427.31,353.51z"/>
				<path class="st4" d="M349.9,328.4v-2.41c10.84-3.45,18.73-13.91,18.73-26.29c0-15.19-11.87-27.5-26.51-27.5
					c-14.64,0-26.51,12.31-26.51,27.5c0,11.92,7.31,22.06,17.53,25.88v3.24c-9.88,3.69-17.04,13.29-17.5,24.7h52.96
					C368.12,341.65,360.4,331.74,349.9,328.4z"/>
			</g>
			<g>
				<path class="st5" d="M427.31,468.86H290.94c-6.09,0-11.02-4.93-11.02-11.02v-76.09c0-6.09,4.93-11.02,11.02-11.02h136.37
					c6.09,0,11.02,4.93,11.02,11.02v76.09C438.33,463.93,433.39,468.86,427.31,468.86z"/>
				<text transform="matrix(1 0 0 1 327.2263 448.8345)"><tspan x="0" y="0" class="st6 st7 st8">ะก</tspan><tspan x="72.6" y="0" class="st9 st7 st8"> </tspan></text>
				<path class="st4" d="M349.9,443.75v-2.41c10.84-3.45,18.73-13.91,18.73-26.29c0-15.19-11.87-27.5-26.51-27.5
					c-14.64,0-26.51,12.31-26.51,27.5c0,11.92,7.31,22.06,17.53,25.88v3.24c-9.88,3.69-17.04,13.29-17.5,24.7h52.96
					C368.12,457,360.4,447.09,349.9,443.75z"/>
			</g>
		</g>
		<g>
			<g>
				<path class="st3" d="M612.18,242.48H475.81c-6.09,0-11.02-4.93-11.02-11.02v-76.09c0-6.09,4.93-11.02,11.02-11.02h136.37
					c6.09,0,11.02,4.93,11.02,11.02v76.09C623.2,237.55,618.27,242.48,612.18,242.48z"/>
				<path class="st4" d="M534.77,217.37v-2.41c10.84-3.45,18.73-13.91,18.73-26.29c0-15.19-11.87-27.5-26.51-27.5
					c-14.64,0-26.51,12.31-26.51,27.5c0,11.92,7.31,22.06,17.53,25.88v3.24c-9.88,3.69-17.04,13.29-17.5,24.7h52.96
					C552.99,230.62,545.27,220.71,534.77,217.37z"/>
			</g>
			<g>
				<path class="st3" d="M612.18,353.51H475.81c-6.09,0-11.02-4.93-11.02-11.02V266.4c0-6.09,4.93-11.02,11.02-11.02h136.37
					c6.09,0,11.02,4.93,11.02,11.02v76.09C623.2,348.58,618.27,353.51,612.18,353.51z"/>
				<path class="st4" d="M534.77,328.4v-2.41c10.84-3.45,18.73-13.91,18.73-26.29c0-15.19-11.87-27.5-26.51-27.5
					c-14.64,0-26.51,12.31-26.51,27.5c0,11.92,7.31,22.06,17.53,25.88v3.24c-9.88,3.69-17.04,13.29-17.5,24.7h52.96
					C552.99,341.65,545.27,331.74,534.77,328.4z"/>
			</g>
			<g>
				<path class="st3" d="M612.18,468.86H475.81c-6.09,0-11.02-4.93-11.02-11.02v-76.09c0-6.09,4.93-11.02,11.02-11.02h136.37
					c6.09,0,11.02,4.93,11.02,11.02v76.09C623.2,463.93,618.27,468.86,612.18,468.86z"/>
				<path class="st4" d="M534.77,443.75v-2.41c10.84-3.45,18.73-13.91,18.73-26.29c0-15.19-11.87-27.5-26.51-27.5
					c-14.64,0-26.51,12.31-26.51,27.5c0,11.92,7.31,22.06,17.53,25.88v3.24c-9.88,3.69-17.04,13.29-17.5,24.7h52.96
					C552.99,457,545.27,447.09,534.77,443.75z"/>
			</g>
		</g>
	</g>
</g>
<g>
	<path class="st10" d="M378.24,396.64c-9.78,0-19.16,1.73-27.84,4.91v152.27c8.68,3.18,18.06,4.91,27.84,4.91
		c44.76,0,81.05-36.29,81.05-81.05C459.29,432.92,423,396.64,378.24,396.64z"/>
	<path class="st11" d="M607.34,630.64c-3.11-77.06-63.81-138.54-138.25-138.54s-135.14,61.48-138.25,138.54H607.34z"/>
	<path class="st12" d="M607.13,626.8c-0.03-0.42-0.06-0.85-0.1-1.27c-0.06-0.86-0.13-1.71-0.21-2.56c-0.04-0.49-0.1-0.98-0.15-1.47
		c-0.08-0.78-0.16-1.56-0.25-2.34c-0.06-0.51-0.12-1.02-0.19-1.53c-0.1-0.76-0.2-1.52-0.3-2.27c-0.07-0.51-0.15-1.02-0.22-1.52
		c-0.12-0.76-0.24-1.52-0.37-2.27c-0.08-0.49-0.16-0.98-0.25-1.47c-0.14-0.79-0.29-1.58-0.45-2.37c-0.09-0.44-0.17-0.88-0.26-1.32
		c-0.19-0.92-0.39-1.83-0.59-2.75c-0.07-0.3-0.13-0.61-0.2-0.91c-0.28-1.23-0.58-2.45-0.89-3.66c-0.03-0.12-0.06-0.23-0.09-0.35
		c-0.28-1.08-0.58-2.16-0.88-3.24c-0.1-0.36-0.21-0.71-0.32-1.07c-0.24-0.83-0.49-1.66-0.75-2.49c-0.13-0.41-0.26-0.82-0.39-1.23
		c-0.25-0.77-0.5-1.54-0.76-2.31c-0.14-0.42-0.29-0.84-0.43-1.25c-0.27-0.76-0.54-1.52-0.81-2.27c-0.15-0.4-0.3-0.81-0.45-1.21
		c-0.29-0.78-0.6-1.55-0.9-2.33c-0.15-0.37-0.29-0.73-0.44-1.1c-0.34-0.85-0.7-1.69-1.06-2.53c-0.12-0.28-0.24-0.56-0.36-0.84
		c-0.99-2.28-2.04-4.53-3.15-6.75c-0.02-0.04-0.04-0.08-0.06-0.12c-0.52-1.05-1.06-2.09-1.61-3.12c-0.12-0.23-0.25-0.46-0.37-0.69
		c-0.45-0.84-0.91-1.68-1.38-2.51c-0.16-0.28-0.32-0.56-0.48-0.84c-0.44-0.78-0.9-1.56-1.35-2.33c-0.17-0.29-0.35-0.58-0.52-0.87
		c-0.46-0.77-0.94-1.53-1.41-2.29c-0.17-0.27-0.34-0.53-0.5-0.8c-0.51-0.8-1.04-1.6-1.56-2.39c-0.14-0.21-0.28-0.42-0.42-0.63
		c-0.62-0.92-1.25-1.84-1.89-2.74c-0.05-0.07-0.1-0.14-0.15-0.22c-2.15-3.02-4.41-5.95-6.77-8.78c-0.11-0.13-0.23-0.27-0.34-0.4
		c-0.66-0.79-1.33-1.57-2.01-2.34c-0.16-0.18-0.32-0.36-0.47-0.54c-0.65-0.73-1.3-1.46-1.97-2.18c-0.17-0.18-0.34-0.36-0.5-0.54
		c-0.67-0.72-1.36-1.44-2.04-2.15c-0.15-0.16-0.3-0.32-0.46-0.47c-0.75-0.76-1.51-1.52-2.27-2.26c-0.09-0.09-0.18-0.18-0.27-0.26
		c-2.66-2.57-5.41-5.04-8.25-7.39c-16.92,28.84-43.86,51.33-77.73,61.42c-21.18,6.31-42.74,7.07-63.25,3.13V504.1
		c-5.42,2.47-10.66,5.3-15.69,8.44v71.26c-16.54-5.27-32.09-13.65-45.82-24.68c-0.75,1.23-1.48,2.48-2.2,3.73
		c-0.08,0.13-0.15,0.27-0.23,0.4c-1.45,2.56-2.83,5.18-4.13,7.84c-0.05,0.11-0.1,0.21-0.15,0.32c-0.59,1.22-1.16,2.44-1.72,3.68
		c-0.07,0.16-0.15,0.33-0.22,0.49c-1.19,2.67-2.31,5.38-3.35,8.14c-0.08,0.22-0.16,0.43-0.24,0.65c-0.45,1.2-0.88,2.4-1.29,3.62
		c-0.07,0.2-0.14,0.39-0.2,0.59c-0.48,1.41-0.93,2.82-1.37,4.25c-0.01,0.04-0.02,0.08-0.03,0.11c-0.4,1.32-0.78,2.66-1.15,4
		c-0.09,0.31-0.17,0.63-0.25,0.94c-0.32,1.2-0.62,2.4-0.91,3.61c-0.05,0.22-0.11,0.43-0.16,0.65c-0.33,1.41-0.65,2.84-0.94,4.27
		c-0.05,0.26-0.1,0.52-0.15,0.78c-0.23,1.17-0.45,2.34-0.66,3.51c-0.07,0.39-0.14,0.78-0.2,1.17c-0.21,1.25-0.4,2.5-0.58,3.76
		c-0.03,0.19-0.06,0.38-0.08,0.57c-0.2,1.43-0.37,2.87-0.52,4.32c-0.04,0.38-0.07,0.75-0.11,1.13c-0.11,1.11-0.21,2.23-0.3,3.35
		c-0.03,0.42-0.07,0.84-0.1,1.26c-0.1,1.46-0.19,2.93-0.25,4.4h276.5C607.29,629.36,607.22,628.07,607.13,626.8z"/>
	<path class="st13" d="M480.32,558.73H451.6c-16.23,0-29.38-13.15-29.38-29.38V408.37c0-16.23,13.15-29.38,29.38-29.38h28.72
		c16.23,0,29.38,13.15,29.38,29.38v120.98C509.71,545.58,496.55,558.73,480.32,558.73z"/>
	<path class="st10" d="M627.11,289.87c0.09-1.81,0.14-3.63,0.14-5.46c0-61.83-53.4-111.95-119.28-111.95S388.7,222.57,388.7,284.4
		s53.4,111.95,119.28,111.95c0.51,0,1.01-0.01,1.52-0.02v234.31h117.93V289.87H627.11z"/>
	<ellipse class="st11" cx="469.09" cy="347.36" rx="138.38" ry="144.74"/>
	<path class="st14" d="M627.39,278.55c-1.52-76.05-74.93-137.32-165.29-137.32c-91.31,0-165.32,62.55-165.32,139.71
		c0,1.07,0.05,2.13,0.08,3.19l-0.08,0.07v193.47h0.41c0,34.98,22.16,64.78,53.2,76.14V401.71c0.14-0.05,0.27-0.11,0.41-0.16v-87.54
		c20.57-3.59,50.4-9.86,92.6-19.58c53.81-12.38,71.78-34.24,69.91-57.11c25.27,9.46,46.31,25.35,60.08,45.16v348.16h54.03V278.55
		H627.39z"/>
	<path class="st15" d="M521.3,341.71c-14.19,0-25.69,11.5-25.69,25.69h51.39C546.99,353.21,535.49,341.71,521.3,341.71z"/>
	<path class="st15" d="M404.84,341.71c-14.19,0-25.69,11.5-25.69,25.69h51.39C430.53,353.21,419.03,341.71,404.84,341.71z"/>
	<path class="st16" d="M465.96,464.18c27.11,0,49.66-17.4,54.29-40.33c0.92-4.55-2.99-8.74-8.19-8.74h-92.2
		c-5.19,0-9.11,4.19-8.19,8.74C416.31,446.77,438.85,464.18,465.96,464.18z"/>
	<path class="st17" d="M465.96,464.18c15.07,0,28.72-5.38,38.67-14.09c-7.86-9.84-20.73-16.3-35.32-16.4
		c-16.31-0.11-30.56,7.75-38.14,19.49C440.66,460.05,452.77,464.18,465.96,464.18z"/>
</g>
<rect x="52.94" y="26.23" class="st5" width="612.38" height="124.68"/>
<text transform="matrix(1 0 0 1 77.3638 106.4643)" class="st18 st6 st19 st20">EmotionUP</text>
<rect x="69.4" y="642.53" class="st5" width="12.29" height="0"/>
</svg>
